<mxfile host="app.diagrams.net" modified="2024-02-27T11:14:23.755Z" agent="Mozilla/5.0 (Windows NT 10.0; Win64; x64; rv:123.0) Gecko/20100101 Firefox/123.0" version="23.1.7" etag="tKE5QrSrzLNY-Spt-bAi" type="github">
  <diagram name="Page-1" id="EvLciWEuFKUg3EAvAw4V">
    <mxGraphModel>
      <root>
        <mxCell id="0" />
        <mxCell id="1" parent="0" />
      </root>
    </mxGraphModel>
  </diagram>
</mxfile>
